<svg xmlns="http://www.w3.org/2000/svg" viewBox="0 0 64 64">
  <rect width="64" height="64" rx="14" fill="#0E5C56"/>
  <path d="M32 14c-5 0-7 3-10 3-2.5 0-4-1.5-4-1.5s-1 13 3 21c2 4 4 6 6 6 2.5 0 2.5-5 5-5s2.5 5 5 5c2 0 4-2 6-6 4-8 3-21 3-21s-1.5 1.5-4 1.5c-3 0-5-3-10-3z" fill="none" stroke="#F4EFE3" stroke-width="2.4" stroke-linejoin="round"/>
  <rect x="29.4" y="29" width="5.2" height="13" rx="1.4" fill="#C9952F"/>
  <rect x="27" y="27" width="10" height="3.6" rx="1.4" fill="#C9952F"/>
</svg>
